<svg width="73" height="96" viewBox="0 0 73 96" fill="none" xmlns="http://www.w3.org/2000/svg">
<g filter="url(#filter0_d)">
<path d="M22.875 37.5625C22.875 39.5156 22.5169 41.0293 21.8008 42.1035C21.0846 43.1452 20.1406 43.9102 18.9688 44.3984C17.7969 44.8867 16.4622 45.1797 14.9648 45.2773C13.4674 45.3424 11.9375 45.375 10.375 45.375V86H4.125V1.625H10.375C13.5 1.625 15.9089 1.88542 17.6016 2.40625C19.2943 2.92708 20.5312 3.57812 21.3125 4.35938C22.0938 5.14062 22.5495 5.98698 22.6797 6.89844C22.8099 7.8099 22.875 8.65625 22.875 9.4375V37.5625ZM16.625 9.4375C16.625 8.65625 16.5111 8.05404 16.2832 7.63086C16.0879 7.20768 15.7461 6.89844 15.2578 6.70312C14.7695 6.50781 14.1185 6.39388 13.3047 6.36133C12.5234 6.32878 11.5469 6.3125 10.375 6.3125V40.6875C11.1562 40.6875 11.9212 40.6712 12.6699 40.6387C13.4186 40.6061 14.0859 40.4922 14.6719 40.2969C15.2578 40.1016 15.7298 39.7923 16.0879 39.3691C16.446 38.946 16.625 38.3438 16.625 37.5625V9.4375ZM46.3125 78.9688C46.3125 80.3359 46.0521 81.5241 45.5312 82.5332C45.043 83.5098 44.3757 84.3236 43.5293 84.9746C42.6829 85.6257 41.7227 86.0977 40.6484 86.3906C39.5742 86.7161 38.4674 86.8789 37.3281 86.8789C36.1237 86.8789 34.9355 86.6999 33.7637 86.3418C32.5918 86.0163 31.5501 85.528 30.6387 84.877C29.7272 84.1934 28.9785 83.3633 28.3926 82.3867C27.8392 81.3776 27.5625 80.2383 27.5625 78.9688V18.0312C27.5625 16.7943 27.8392 15.7038 28.3926 14.7598C28.9785 13.7832 29.7272 12.9694 30.6387 12.3184C31.5827 11.6673 32.6406 11.179 33.8125 10.8535C34.9844 10.4954 36.1725 10.3164 37.377 10.3164C38.5163 10.3164 39.623 10.4792 40.6973 10.8047C41.7715 11.0977 42.7155 11.5697 43.5293 12.2207C44.3757 12.8392 45.043 13.6367 45.5312 14.6133C46.0521 15.5898 46.3125 16.7292 46.3125 18.0312V78.9688ZM40.0625 18.0312C40.0625 16.9245 39.7858 16.1432 39.2324 15.6875C38.7116 15.1992 38.0931 14.9551 37.377 14.9551C36.9538 14.9551 36.5306 15.0365 36.1074 15.1992C35.6842 15.3294 35.2936 15.541 34.9355 15.834C34.61 16.0944 34.3333 16.4199 34.1055 16.8105C33.9102 17.1686 33.8125 17.5755 33.8125 18.0312V78.9688C33.8125 79.4245 33.9102 79.8477 34.1055 80.2383C34.3333 80.6289 34.61 80.9544 34.9355 81.2148C35.2936 81.4753 35.668 81.6868 36.0586 81.8496C36.4818 81.9798 36.9049 82.0449 37.3281 82.0449C38.0443 82.0449 38.679 81.8171 39.2324 81.3613C39.7858 80.873 40.0625 80.0755 40.0625 78.9688V18.0312ZM51 9.4375C51 7.875 51.2441 6.50781 51.7324 5.33594C52.2207 4.16406 52.8717 3.1875 53.6855 2.40625C54.4993 1.625 55.4108 1.03906 56.4199 0.648438C57.4616 0.257812 58.5195 0.0625 59.5938 0.0625C60.668 0.0625 61.7096 0.257812 62.7188 0.648438C63.7604 1.03906 64.6882 1.625 65.502 2.40625C66.3158 3.1875 66.9668 4.16406 67.4551 5.33594C67.9434 6.50781 68.1875 7.875 68.1875 9.4375V36C68.1875 36.3906 68.1549 36.8626 68.0898 37.416C68.0573 37.9694 67.8945 38.5391 67.6016 39.125C67.3086 39.7109 66.8366 40.2806 66.1855 40.834C65.5671 41.3874 64.6719 41.8594 63.5 42.25C64.6719 42.6406 65.5671 43.1126 66.1855 43.666C66.8366 44.2194 67.3086 44.7891 67.6016 45.375C67.8945 45.9609 68.0573 46.5306 68.0898 47.084C68.1549 47.6374 68.1875 48.1094 68.1875 48.5V78.1875C68.1875 79.75 67.9434 81.1172 67.4551 82.2891C66.9668 83.4609 66.3158 84.4375 65.502 85.2188C64.6882 86 63.7604 86.5859 62.7188 86.9766C61.7096 87.3672 60.668 87.5625 59.5938 87.5625C58.5195 87.5625 57.4616 87.3672 56.4199 86.9766C55.4108 86.5859 54.4993 86 53.6855 85.2188C52.8717 84.4375 52.2207 83.4609 51.7324 82.2891C51.2441 81.1172 51 79.75 51 78.1875V56.3125H57.25V78.1875C57.25 79.75 57.4941 80.9219 57.9824 81.7031C58.4707 82.4844 59.0078 82.875 59.5938 82.875C60.1797 82.875 60.7168 82.4844 61.2051 81.7031C61.6934 80.9219 61.9375 79.75 61.9375 78.1875V48.5C61.9375 47.7188 61.8398 47.1165 61.6445 46.6934C61.4818 46.2702 61.2539 45.9609 60.9609 45.7656C60.668 45.5703 60.3262 45.4564 59.9355 45.4238C59.5775 45.3913 59.2031 45.375 58.8125 45.375H55.6875V39.125H58.8125C59.2031 39.125 59.5775 39.1087 59.9355 39.0762C60.3262 39.0436 60.668 38.9297 60.9609 38.7344C61.2539 38.5391 61.4818 38.2298 61.6445 37.8066C61.8398 37.3509 61.9375 36.7324 61.9375 35.9512V9.4375C61.9375 7.875 61.6934 6.70312 61.2051 5.92188C60.7168 5.14062 60.1797 4.75 59.5938 4.75C59.0078 4.75 58.4707 5.14062 57.9824 5.92188C57.4941 6.70312 57.25 7.875 57.25 9.4375V29.75H51V9.4375Z" fill="#FEFEFE"/>
</g>
<defs>
<filter id="filter0_d" x="0.125" y="0.0625" width="72.0625" height="95.5" filterUnits="userSpaceOnUse" color-interpolation-filters="sRGB">
<feFlood flood-opacity="0" result="BackgroundImageFix"/>
<feColorMatrix in="SourceAlpha" type="matrix" values="0 0 0 0 0 0 0 0 0 0 0 0 0 0 0 0 0 0 127 0"/>
<feOffset dy="4"/>
<feGaussianBlur stdDeviation="2"/>
<feColorMatrix type="matrix" values="0 0 0 0 0 0 0 0 0 0 0 0 0 0 0 0 0 0 0.25 0"/>
<feBlend mode="normal" in2="BackgroundImageFix" result="effect1_dropShadow"/>
<feBlend mode="normal" in="SourceGraphic" in2="effect1_dropShadow" result="shape"/>
</filter>
</defs>
</svg>
