<svg width="21" height="22" viewBox="0 0 21 22" fill="none" xmlns="http://www.w3.org/2000/svg">
<path d="M5.5552 17.7646L6.30937 18.2052C7.58118 18.9469 9.02769 19.3363 10.5 19.3333C12.1482 19.3333 13.7593 18.8446 15.1297 17.9289C16.5002 17.0132 17.5683 15.7117 18.199 14.189C18.8297 12.6663 18.9947 10.9907 18.6732 9.37423C18.3517 7.75772 17.558 6.27286 16.3925 5.10742C15.2271 3.94199 13.7423 3.14831 12.1257 2.82677C10.5092 2.50523 8.83368 2.67025 7.31096 3.30098C5.78825 3.93171 4.48676 4.99982 3.57108 6.37023C2.6554 7.74064 2.16666 9.3518 2.16666 11C2.16362 12.4728 2.5534 13.9197 3.29583 15.1916L3.73541 15.9458L3.0552 18.4469L5.5552 17.7646ZM0.0874936 21.4166L1.49583 16.2416C0.567846 14.6509 0.0803019 12.8416 0.083327 11C0.083327 5.24685 4.74687 0.583313 10.5 0.583313C16.2531 0.583313 20.9167 5.24685 20.9167 11C20.9167 16.7531 16.2531 21.4166 10.5 21.4166C8.65914 21.4196 6.85068 20.9324 5.26041 20.0052L0.0874936 21.4166ZM6.74062 6.11248C6.8802 6.10206 7.02083 6.10206 7.16041 6.10831C7.21666 6.11248 7.27291 6.11873 7.32916 6.12498C7.49479 6.14373 7.67708 6.24477 7.73853 6.38435C8.04895 7.08852 8.35103 7.7979 8.6427 8.50935C8.70728 8.66769 8.66874 8.87081 8.54583 9.06873C8.46129 9.20256 8.36985 9.3319 8.27187 9.45623C8.15416 9.60727 7.90104 9.88435 7.90104 9.88435C7.90104 9.88435 7.79791 10.0073 7.83749 10.1604C7.85208 10.2187 7.89999 10.3031 7.94374 10.3739L8.0052 10.4729C8.27187 10.9177 8.6302 11.3687 9.0677 11.7937C9.1927 11.9146 9.31458 12.0385 9.44583 12.1541C9.93333 12.5844 10.4854 12.9354 11.0812 13.1958L11.0865 13.1979C11.175 13.2364 11.2198 13.2573 11.349 13.3125C11.4135 13.3396 11.4802 13.3635 11.5479 13.3812C11.6179 13.399 11.6916 13.3957 11.7596 13.3716C11.8277 13.3475 11.8871 13.3037 11.9302 13.2458C12.6844 12.3323 12.7531 12.2729 12.7594 12.2729V12.275C12.8118 12.2261 12.874 12.189 12.9419 12.1662C13.0098 12.1434 13.0818 12.1354 13.1531 12.1427C13.2156 12.1469 13.2792 12.1583 13.3375 12.1844C13.8906 12.4375 14.7958 12.8323 14.7958 12.8323L15.4021 13.1041C15.5042 13.1531 15.5969 13.2687 15.6 13.3802C15.6042 13.45 15.6104 13.5625 15.5865 13.7687C15.5531 14.0385 15.4719 14.3625 15.3906 14.5323C15.335 14.6481 15.2611 14.7544 15.1719 14.8469C15.0668 14.9572 14.9517 15.0576 14.8281 15.1469C14.7854 15.179 14.742 15.2103 14.6979 15.2406C14.5683 15.3228 14.4352 15.3993 14.299 15.4698C14.0308 15.6122 13.7345 15.694 13.4312 15.7094C13.2385 15.7198 13.0458 15.7344 12.8521 15.7239C12.8437 15.7239 12.2604 15.6333 12.2604 15.6333C10.7794 15.2438 9.40977 14.514 8.26041 13.5021C8.02499 13.2948 7.80729 13.0719 7.58437 12.85C6.65729 11.9281 5.95728 10.9333 5.53228 9.99373C5.31475 9.53257 5.19725 9.03061 5.18749 8.52081C5.1832 7.88837 5.38994 7.27255 5.77499 6.77081C5.85104 6.6729 5.92291 6.57081 6.04687 6.4531C6.17916 6.3281 6.26249 6.26144 6.35312 6.2156C6.47361 6.15522 6.60506 6.11979 6.73958 6.11144L6.74062 6.11248Z" fill="white"/>
</svg>
