<svg width="23" height="22" viewBox="0 0 23 22" fill="none" xmlns="http://www.w3.org/2000/svg">
<path d="M22.1927 1.02912C21.8962 0.782405 21.5382 0.620728 21.1571 0.561296C20.7759 0.501865 20.3858 0.546903 20.0281 0.691616L1.36044 8.22807C0.961328 8.39234 0.621596 8.67408 0.386318 9.0359C0.151039 9.39773 0.0313347 9.82254 0.0430867 10.254C0.0548388 10.6854 0.197491 11.1031 0.452118 11.4516C0.706745 11.8 1.06131 12.0629 1.46877 12.2052L5.24481 13.5187L7.34898 20.4791C7.37782 20.572 7.41955 20.6603 7.47294 20.7416C7.48127 20.7541 7.49273 20.7624 7.50106 20.776C7.56245 20.8614 7.63657 20.937 7.72086 20.9999C7.74438 21.0184 7.76871 21.0358 7.79377 21.052C7.89244 21.1175 8.00169 21.1654 8.11669 21.1937L8.13023 21.1947L8.13648 21.1979C8.2061 21.2118 8.27693 21.2188 8.34794 21.2187L8.36669 21.2156C8.47337 21.2138 8.57914 21.1955 8.68023 21.1614C8.70419 21.1531 8.72398 21.1406 8.7469 21.1302C8.82252 21.0991 8.8942 21.0593 8.96044 21.0114C9.0132 20.9666 9.06598 20.9218 9.11877 20.877L11.9334 17.7697L16.1313 21.0218C16.5008 21.3096 16.9556 21.4661 17.424 21.4666C17.9149 21.466 18.3906 21.2967 18.7714 20.987C19.1523 20.6773 19.415 20.246 19.5156 19.7656L22.9146 3.0812C22.9915 2.70584 22.9649 2.31665 22.8378 1.95521C22.7106 1.59377 22.4877 1.27367 22.1927 1.02912V1.02912ZM8.76044 13.8499C8.61618 13.9939 8.51761 14.1773 8.47711 14.377L8.15419 15.9437L7.33752 13.2427L11.5719 11.0374L8.76044 13.8499ZM17.4084 19.3749L12.4469 15.5312C12.2393 15.371 11.979 15.2949 11.7178 15.3181C11.4566 15.3412 11.2137 15.462 11.0375 15.6562L10.1354 16.651L10.4542 15.102L17.8323 7.72391C18.0074 7.54778 18.1137 7.3149 18.1323 7.06726C18.1508 6.81962 18.0802 6.57352 17.9333 6.37331C17.7864 6.1731 17.5728 6.03197 17.331 5.97536C17.0892 5.91874 16.8351 5.95037 16.6146 6.06453L6.02606 11.577L2.14586 10.1572L20.874 2.66662L17.4084 19.3749Z" fill="white"/>
</svg>
