<svg width="25" height="26" viewBox="0 0 25 26" fill="none" xmlns="http://www.w3.org/2000/svg">
<path fill-rule="evenodd" clip-rule="evenodd" d="M7.34659 0.575C8.67955 0.513636 9.10455 0.5 12.5 0.5C15.8955 0.5 16.3205 0.514773 17.6523 0.575C18.9841 0.635227 19.8932 0.847727 20.6886 1.15568C21.5216 1.47045 22.2773 1.9625 22.9023 2.59886C23.5386 3.22273 24.0295 3.97727 24.3432 4.81136C24.6523 5.60682 24.8636 6.51591 24.925 7.84545C24.9864 9.18068 25 9.60568 25 13C25 16.3955 24.9852 16.8205 24.925 18.1534C24.8648 19.483 24.6523 20.392 24.3432 21.1875C24.0295 22.0217 23.5378 22.7775 22.9023 23.4023C22.2773 24.0386 21.5216 24.5295 20.6886 24.8432C19.8932 25.1523 18.9841 25.3636 17.6545 25.425C16.3205 25.4864 15.8955 25.5 12.5 25.5C9.10455 25.5 8.67955 25.4852 7.34659 25.425C6.01705 25.3648 5.10795 25.1523 4.3125 24.8432C3.47832 24.5295 2.72252 24.0378 2.09773 23.4023C1.4618 22.778 0.969676 22.0226 0.655682 21.1886C0.347727 20.3932 0.136364 19.4841 0.075 18.1545C0.0136363 16.8193 0 16.3943 0 13C0 9.60455 0.0147727 9.17955 0.075 7.84773C0.135227 6.51591 0.347727 5.60682 0.655682 4.81136C0.97014 3.97737 1.46263 3.22195 2.09886 2.59773C2.72277 1.96193 3.47781 1.46982 4.31136 1.15568C5.10682 0.847727 6.01591 0.636364 7.34545 0.575H7.34659ZM17.5511 2.825C16.233 2.76477 15.8375 2.75227 12.5 2.75227C9.1625 2.75227 8.76705 2.76477 7.44886 2.825C6.22955 2.88068 5.56818 3.08409 5.12727 3.25568C4.54432 3.48295 4.12727 3.75227 3.68977 4.18977C3.27505 4.59324 2.95589 5.08441 2.75568 5.62727C2.58409 6.06818 2.38068 6.72955 2.325 7.94886C2.26477 9.26705 2.25227 9.6625 2.25227 13C2.25227 16.3375 2.26477 16.733 2.325 18.0511C2.38068 19.2705 2.58409 19.9318 2.75568 20.3727C2.95568 20.9148 3.275 21.4068 3.68977 21.8102C4.09318 22.225 4.58523 22.5443 5.12727 22.7443C5.56818 22.9159 6.22955 23.1193 7.44886 23.175C8.76705 23.2352 9.16136 23.2477 12.5 23.2477C15.8386 23.2477 16.233 23.2352 17.5511 23.175C18.7705 23.1193 19.4318 22.9159 19.8727 22.7443C20.4557 22.517 20.8727 22.2477 21.3102 21.8102C21.725 21.4068 22.0443 20.9148 22.2443 20.3727C22.4159 19.9318 22.6193 19.2705 22.675 18.0511C22.7352 16.733 22.7477 16.3375 22.7477 13C22.7477 9.6625 22.7352 9.26705 22.675 7.94886C22.6193 6.72955 22.4159 6.06818 22.2443 5.62727C22.017 5.04432 21.7477 4.62727 21.3102 4.18977C20.9067 3.77508 20.4156 3.45592 19.8727 3.25568C19.4318 3.08409 18.7705 2.88068 17.5511 2.825V2.825ZM10.9034 16.8534C11.7951 17.2246 12.7879 17.2747 13.7124 16.9951C14.6369 16.7156 15.4357 16.1238 15.9723 15.3207C16.5089 14.5177 16.7501 13.5533 16.6546 12.5922C16.5591 11.6311 16.133 10.7329 15.4489 10.0511C15.0128 9.61531 14.4855 9.2816 13.9049 9.07403C13.3244 8.86646 12.705 8.79018 12.0915 8.8507C11.4779 8.91122 10.8854 9.10702 10.3566 9.42401C9.82779 9.741 9.37585 10.1713 9.0333 10.6839C8.69075 11.1965 8.46612 11.7787 8.37559 12.3886C8.28505 12.9984 8.33085 13.6208 8.5097 14.2108C8.68855 14.8008 8.996 15.3439 9.40991 15.8008C9.82382 16.2578 10.3339 16.6173 10.9034 16.8534ZM7.95682 8.45682C8.55344 7.8602 9.26173 7.38694 10.0412 7.06405C10.8208 6.74116 11.6563 6.57497 12.5 6.57497C13.3437 6.57497 14.1792 6.74116 14.9588 7.06405C15.7383 7.38693 16.4466 7.8602 17.0432 8.45682C17.6398 9.05344 18.1131 9.76173 18.436 10.5412C18.7588 11.3208 18.925 12.1563 18.925 13C18.925 13.8437 18.7588 14.6792 18.436 15.4588C18.1131 16.2383 17.6398 16.9466 17.0432 17.5432C15.8383 18.7481 14.204 19.425 12.5 19.425C10.796 19.425 9.16174 18.7481 7.95682 17.5432C6.75189 16.3383 6.07497 14.704 6.07497 13C6.07497 11.296 6.75189 9.66174 7.95682 8.45682V8.45682ZM20.35 7.53182C20.4978 7.39235 20.6162 7.22464 20.6981 7.03861C20.7799 6.85258 20.8236 6.65201 20.8266 6.44878C20.8296 6.24556 20.7917 6.0438 20.7153 5.85547C20.6389 5.66713 20.5255 5.49603 20.3818 5.35232C20.2381 5.2086 20.067 5.09518 19.8786 5.01877C19.6903 4.94236 19.4885 4.90452 19.2853 4.90748C19.0821 4.91044 18.8815 4.95415 18.6955 5.03602C18.5095 5.11788 18.3417 5.23624 18.2023 5.38409C17.931 5.67162 17.7825 6.05355 17.7883 6.44878C17.7941 6.84402 17.9536 7.22145 18.2331 7.50096C18.5126 7.78046 18.8901 7.94003 19.2853 7.94579C19.6805 7.95156 20.0625 7.80306 20.35 7.53182V7.53182Z" fill="white"/>
</svg>
