<svg width="25" height="26" viewBox="0 0 25 26" fill="none" xmlns="http://www.w3.org/2000/svg">
<path d="M25 13.0774C25 6.12919 19.4008 0.5 12.5 0.5C5.59453 0.5 0 6.12919 0 13.0774C0 19.3536 4.56953 24.5575 10.5469 25.5V16.7139H7.37266V13.0782H10.5469V10.3057C10.5469 7.15425 12.4102 5.41384 15.2664 5.41384C16.6344 5.41384 18.0664 5.6591 18.0664 5.6591V8.75394H16.4875C14.9375 8.75394 14.4531 9.72476 14.4531 10.7192V13.0774H17.9195L17.3625 16.7131H14.4531V25.4992C20.4258 24.5567 25 19.3528 25 13.0766V13.0774Z" fill="white"/>
</svg>
